<?xml version="1.0" encoding="UTF-8"?>
<svg xmlns="http://www.w3.org/2000/svg" xmlns:xlink="http://www.w3.org/1999/xlink" viewBox="0 0 100 100" width="100px" height="100px">
<g id="surface6299430">
<path style="fill-rule:nonzero;fill:rgb(0%,0%,0%);fill-opacity:1;stroke-width:10;stroke-linecap:butt;stroke-linejoin:round;stroke:rgb(80.000001%,80.000001%,80.000001%);stroke-opacity:1;stroke-miterlimit:10;" d="M 137.867042 18.855295 C 138.166605 18.833898 147.346044 18.434482 152.809486 23.776673 C 155.512677 26.415672 156.817912 29.946226 156.696661 34.275612 C 156.668131 35.202828 155.912093 35.9446 154.977745 35.9446 L 149.571362 35.958865 L 149.571362 144.150714 C 149.571362 144.321893 149.542832 144.493071 149.492905 144.664249 C 149.093489 145.933822 145.441684 157.088945 138.801391 156.447026 L 38.562203 156.454158 C 38.034403 156.496953 37.449543 156.525482 36.836154 156.525482 C 30.901972 156.525482 21.608414 154.136118 20.68833 144.664249 C 20.609873 143.87255 20.609873 108.538485 20.617006 108.253188 C 20.638403 107.31884 21.401573 106.569934 22.335922 106.569934 L 22.343054 106.569934 L 37.677781 106.619861 L 37.770503 33.697885 C 37.770503 26.972002 43.932923 18.84103 51.57889 18.84103 Z M 41.215467 33.697885 L 41.115613 107.882302 C 41.16554 108.032083 41.215467 108.181864 41.215467 108.34591 C 41.215467 108.509956 41.158408 108.659737 41.115613 108.809518 L 41.072818 142.574447 C 41.42944 144.500203 41.229732 147.987962 38.398157 149.7996 C 38.11286 149.985043 37.7919 150.070632 37.478073 150.070632 C 36.907479 150.070632 36.351149 149.785335 36.023057 149.2718 C 35.516655 148.472968 35.752025 147.410235 36.550857 146.8967 C 38.205581 145.841101 37.677781 143.123644 37.670649 143.095115 C 37.642119 142.973863 37.634987 142.859744 37.634987 142.738493 L 37.677781 110.050561 L 24.054838 110.014899 C 24.054838 116.983284 24.06197 143.202101 24.111897 144.393217 C 25.053378 154.050529 37.870357 153.073386 38.412422 153.016326 L 138.958304 153.016326 C 142.082309 153.344418 145.056533 147.139203 146.13353 143.87255 L 146.13353 35.958865 L 89.373643 36.051587 C 88.425029 36.051587 87.654727 35.288417 87.654727 34.332671 C 87.647594 33.384058 88.417897 32.613755 89.36651 32.613755 L 153.208902 32.506769 C 152.987797 29.946226 152.053448 27.849291 150.412989 26.244494 C 146.040809 21.957903 138.023956 22.285995 137.952632 22.293127 L 51.586022 22.285995 C 46.001328 22.285995 41.215467 28.562534 41.215467 33.697885 Z M 80.771931 32.613755 C 81.720544 32.613755 82.490847 33.384058 82.490847 34.332671 C 82.490847 35.281284 81.720544 36.051587 80.771931 36.051587 L 72.170219 36.051587 C 71.221605 36.051587 70.451303 35.281284 70.451303 34.332671 C 70.451303 33.384058 71.221605 32.613755 72.170219 32.613755 Z M 88.510618 48.091131 C 88.988491 48.091131 89.373643 48.476282 89.373643 48.954155 C 89.373643 49.424895 88.988491 49.810047 88.510618 49.810047 L 48.954155 49.810047 C 48.476282 49.810047 48.091131 49.424895 48.091131 48.954155 C 48.091131 48.476282 48.476282 48.091131 48.954155 48.091131 Z M 117.753586 48.091131 C 118.224327 48.091131 118.609478 48.476282 118.609478 48.954155 C 118.609478 49.424895 118.224327 49.810047 117.753586 49.810047 L 93.674499 49.810047 C 93.196626 49.810047 92.811474 49.424895 92.811474 48.954155 C 92.811474 48.476282 93.196626 48.091131 93.674499 48.091131 Z M 141.832674 48.091131 C 142.310547 48.091131 142.695698 48.476282 142.695698 48.954155 C 142.695698 49.424895 142.310547 49.810047 141.832674 49.810047 L 122.910334 49.810047 C 122.439594 49.810047 122.054442 49.424895 122.054442 48.954155 C 122.054442 48.476282 122.439594 48.091131 122.910334 48.091131 Z M 79.916039 58.411759 C 80.386779 58.411759 80.771931 58.79691 80.771931 59.274783 C 80.771931 59.745523 80.386779 60.130675 79.916039 60.130675 L 48.954155 60.130675 C 48.476282 60.130675 48.091131 59.745523 48.091131 59.274783 C 48.091131 58.79691 48.476282 58.411759 48.954155 58.411759 Z M 141.832674 58.411759 C 142.310547 58.411759 142.695698 58.79691 142.695698 59.274783 C 142.695698 59.745523 142.310547 60.130675 141.832674 60.130675 L 85.072787 60.130675 C 84.594914 60.130675 84.209762 59.745523 84.209762 59.274783 C 84.209762 58.79691 84.594914 58.411759 85.072787 58.411759 Z M 73.033243 72.170219 C 73.503983 72.170219 73.896267 72.55537 73.896267 73.033243 C 73.896267 73.503983 73.503983 73.896267 73.033243 73.896267 L 49.810047 73.896267 L 49.810047 99.694271 L 77.334099 99.694271 L 77.334099 78.18999 C 77.334099 77.71925 77.71925 77.334099 78.18999 77.334099 C 78.667863 77.334099 79.053015 77.71925 79.053015 78.18999 L 79.053015 100.550162 C 79.053015 101.028035 78.667863 101.413187 78.18999 101.413187 L 48.954155 101.413187 C 48.476282 101.413187 48.091131 101.028035 48.091131 100.550162 L 48.091131 73.033243 C 48.091131 72.55537 48.476282 72.170219 48.954155 72.170219 Z M 141.832674 75.615183 C 142.310547 75.615183 142.695698 76.000334 142.695698 76.471075 C 142.695698 76.948947 142.310547 77.334099 141.832674 77.334099 L 88.510618 77.334099 C 88.039878 77.334099 87.654727 76.948947 87.654727 76.471075 C 87.654727 76.000334 88.039878 75.615183 88.510618 75.615183 Z M 141.832674 87.654727 C 142.310547 87.654727 142.695698 88.039878 142.695698 88.510618 C 142.695698 88.988491 142.310547 89.373643 141.832674 89.373643 L 88.510618 89.373643 C 88.039878 89.373643 87.654727 88.988491 87.654727 88.510618 C 87.654727 88.039878 88.039878 87.654727 88.510618 87.654727 Z M 141.832674 99.694271 C 142.310547 99.694271 142.695698 100.079422 142.695698 100.550162 C 142.695698 101.028035 142.310547 101.413187 141.832674 101.413187 L 88.510618 101.413187 C 88.039878 101.413187 87.654727 101.028035 87.654727 100.550162 C 87.654727 100.079422 88.039878 99.694271 88.510618 99.694271 Z M 102.276211 113.45273 C 102.746951 113.45273 103.132102 113.837882 103.132102 114.315755 C 103.132102 114.786495 102.746951 115.171646 102.276211 115.171646 L 48.954155 115.171646 C 48.476282 115.171646 48.091131 114.786495 48.091131 114.315755 C 48.091131 113.837882 48.476282 113.45273 48.954155 113.45273 Z M 140.113758 113.45273 C 140.584499 113.45273 140.96965 113.837882 140.96965 114.315755 L 140.96965 141.832674 C 140.96965 142.310547 140.584499 142.695698 140.113758 142.695698 L 117.753586 142.695698 C 117.275714 142.695698 116.890562 142.310547 116.890562 141.832674 C 116.890562 141.354801 117.275714 140.96965 117.753586 140.96965 L 139.250734 140.96965 L 139.250734 115.171646 L 111.733814 115.171646 L 111.733814 138.394842 C 111.733814 138.865583 111.348663 139.250734 110.87079 139.250734 C 110.40005 139.250734 110.014899 138.865583 110.014899 138.394842 L 110.014899 114.315755 C 110.014899 113.837882 110.40005 113.45273 110.87079 113.45273 Z M 102.276211 125.492274 C 102.746951 125.492274 103.132102 125.877426 103.132102 126.355298 C 103.132102 126.826039 102.746951 127.21119 102.276211 127.21119 L 48.954155 127.21119 C 48.476282 127.21119 48.091131 126.826039 48.091131 126.355298 C 48.091131 125.877426 48.476282 125.492274 48.954155 125.492274 Z M 102.276211 137.531818 C 102.746951 137.531818 103.132102 137.916969 103.132102 138.394842 C 103.132102 138.865583 102.746951 139.250734 102.276211 139.250734 L 48.954155 139.250734 C 48.476282 139.250734 48.091131 138.865583 48.091131 138.394842 C 48.091131 137.916969 48.476282 137.531818 48.954155 137.531818 Z M 102.276211 137.531818 " transform="matrix(0.547674,0,0,0.547674,2.9,2.9)"/>
<path style=" stroke:none;fill-rule:nonzero;fill:rgb(0%,0%,0%);fill-opacity:1;" d="M 31.148438 13.21875 C 26.960938 13.21875 23.585938 17.671875 23.585938 21.355469 L 23.535156 61.292969 L 15.136719 61.265625 L 15.132812 61.265625 C 14.621094 61.265625 14.203125 61.675781 14.191406 62.1875 C 14.1875 62.34375 14.1875 81.695312 14.230469 82.128906 C 14.734375 87.316406 19.824219 88.625 23.074219 88.625 C 23.410156 88.625 23.730469 88.609375 24.019531 88.585938 L 78.917969 88.582031 C 82.554688 88.933594 84.554688 82.824219 84.773438 82.128906 C 84.800781 82.035156 84.816406 81.941406 84.816406 81.847656 L 84.816406 22.59375 L 87.777344 22.585938 C 88.289062 22.585938 88.703125 22.179688 88.71875 21.671875 C 88.785156 19.300781 88.070312 17.367188 86.589844 15.921875 C 83.597656 12.996094 78.570312 13.214844 78.40625 13.226562 Z M 31.152344 15.105469 L 78.453125 15.109375 C 78.492188 15.105469 82.882812 14.925781 85.277344 17.273438 C 86.175781 18.152344 86.6875 19.300781 86.808594 20.703125 L 51.84375 20.761719 C 51.324219 20.761719 50.902344 21.183594 50.90625 21.703125 C 50.90625 22.226562 51.328125 22.644531 51.847656 22.644531 L 82.933594 22.59375 L 82.933594 81.695312 C 82.34375 83.484375 80.714844 86.882812 79.003906 86.703125 L 23.9375 86.703125 C 23.640625 86.734375 16.621094 87.269531 16.105469 81.980469 C 16.078125 81.328125 16.074219 66.96875 16.074219 63.152344 L 23.535156 63.171875 L 23.511719 81.074219 C 23.511719 81.140625 23.515625 81.203125 23.53125 81.269531 C 23.535156 81.285156 23.824219 82.773438 22.917969 83.351562 C 22.480469 83.632812 22.351562 84.214844 22.628906 84.652344 C 22.808594 84.933594 23.113281 85.089844 23.425781 85.089844 C 23.597656 85.089844 23.773438 85.042969 23.929688 84.941406 C 25.480469 83.949219 25.589844 82.039062 25.394531 80.984375 L 25.417969 62.492188 C 25.441406 62.410156 25.472656 62.328125 25.472656 62.238281 C 25.472656 62.148438 25.445312 62.066406 25.417969 61.984375 L 25.472656 21.355469 C 25.472656 18.542969 28.09375 15.105469 31.152344 15.105469 Z M 42.425781 20.761719 C 41.90625 20.761719 41.484375 21.183594 41.484375 21.703125 C 41.484375 22.222656 41.90625 22.644531 42.425781 22.644531 L 47.136719 22.644531 C 47.65625 22.644531 48.078125 22.222656 48.078125 21.703125 C 48.078125 21.183594 47.65625 20.761719 47.136719 20.761719 Z M 29.710938 29.238281 C 29.449219 29.238281 29.238281 29.449219 29.238281 29.710938 C 29.238281 29.96875 29.449219 30.179688 29.710938 30.179688 L 51.375 30.179688 C 51.636719 30.179688 51.847656 29.96875 51.847656 29.710938 C 51.847656 29.449219 51.636719 29.238281 51.375 29.238281 Z M 54.203125 29.238281 C 53.941406 29.238281 53.730469 29.449219 53.730469 29.710938 C 53.730469 29.96875 53.941406 30.179688 54.203125 30.179688 L 67.390625 30.179688 C 67.648438 30.179688 67.859375 29.96875 67.859375 29.710938 C 67.859375 29.449219 67.648438 29.238281 67.390625 29.238281 Z M 70.214844 29.238281 C 69.957031 29.238281 69.746094 29.449219 69.746094 29.710938 C 69.746094 29.96875 69.957031 30.179688 70.214844 30.179688 L 80.578125 30.179688 C 80.839844 30.179688 81.050781 29.96875 81.050781 29.710938 C 81.050781 29.449219 80.839844 29.238281 80.578125 29.238281 Z M 29.710938 34.890625 C 29.449219 34.890625 29.238281 35.101562 29.238281 35.363281 C 29.238281 35.621094 29.449219 35.832031 29.710938 35.832031 L 46.667969 35.832031 C 46.925781 35.832031 47.136719 35.621094 47.136719 35.363281 C 47.136719 35.101562 46.925781 34.890625 46.667969 34.890625 Z M 49.492188 34.890625 C 49.230469 34.890625 49.019531 35.101562 49.019531 35.363281 C 49.019531 35.621094 49.230469 35.832031 49.492188 35.832031 L 80.578125 35.832031 C 80.839844 35.832031 81.050781 35.621094 81.050781 35.363281 C 81.050781 35.101562 80.839844 34.890625 80.578125 34.890625 Z M 29.710938 42.425781 C 29.449219 42.425781 29.238281 42.636719 29.238281 42.898438 L 29.238281 57.96875 C 29.238281 58.230469 29.449219 58.441406 29.710938 58.441406 L 45.722656 58.441406 C 45.984375 58.441406 46.195312 58.230469 46.195312 57.96875 L 46.195312 45.722656 C 46.195312 45.464844 45.984375 45.253906 45.722656 45.253906 C 45.464844 45.253906 45.253906 45.464844 45.253906 45.722656 L 45.253906 57.5 L 30.179688 57.5 L 30.179688 43.371094 L 42.898438 43.371094 C 43.15625 43.371094 43.371094 43.15625 43.371094 42.898438 C 43.371094 42.636719 43.15625 42.425781 42.898438 42.425781 Z M 51.375 44.3125 C 51.117188 44.3125 50.90625 44.523438 50.90625 44.78125 C 50.90625 45.042969 51.117188 45.253906 51.375 45.253906 L 80.578125 45.253906 C 80.839844 45.253906 81.050781 45.042969 81.050781 44.78125 C 81.050781 44.523438 80.839844 44.3125 80.578125 44.3125 Z M 51.375 50.90625 C 51.117188 50.90625 50.90625 51.117188 50.90625 51.375 C 50.90625 51.636719 51.117188 51.847656 51.375 51.847656 L 80.578125 51.847656 C 80.839844 51.847656 81.050781 51.636719 81.050781 51.375 C 81.050781 51.117188 80.839844 50.90625 80.578125 50.90625 Z M 51.375 57.5 C 51.117188 57.5 50.90625 57.710938 50.90625 57.96875 C 50.90625 58.230469 51.117188 58.441406 51.375 58.441406 L 80.578125 58.441406 C 80.839844 58.441406 81.050781 58.230469 81.050781 57.96875 C 81.050781 57.710938 80.839844 57.5 80.578125 57.5 Z M 29.710938 65.035156 C 29.449219 65.035156 29.238281 65.246094 29.238281 65.507812 C 29.238281 65.765625 29.449219 65.976562 29.710938 65.976562 L 58.914062 65.976562 C 59.171875 65.976562 59.382812 65.765625 59.382812 65.507812 C 59.382812 65.246094 59.171875 65.035156 58.914062 65.035156 Z M 63.621094 65.035156 C 63.363281 65.035156 63.152344 65.246094 63.152344 65.507812 L 63.152344 78.695312 C 63.152344 78.953125 63.363281 79.164062 63.621094 79.164062 C 63.882812 79.164062 64.09375 78.953125 64.09375 78.695312 L 64.09375 65.976562 L 79.164062 65.976562 L 79.164062 80.105469 L 67.390625 80.105469 C 67.128906 80.105469 66.917969 80.316406 66.917969 80.578125 C 66.917969 80.839844 67.128906 81.050781 67.390625 81.050781 L 79.636719 81.050781 C 79.894531 81.050781 80.105469 80.839844 80.105469 80.578125 L 80.105469 65.507812 C 80.105469 65.246094 79.894531 65.035156 79.636719 65.035156 Z M 29.710938 71.628906 C 29.449219 71.628906 29.238281 71.839844 29.238281 72.101562 C 29.238281 72.359375 29.449219 72.570312 29.710938 72.570312 L 58.914062 72.570312 C 59.171875 72.570312 59.382812 72.359375 59.382812 72.101562 C 59.382812 71.839844 59.171875 71.628906 58.914062 71.628906 Z M 29.710938 78.222656 C 29.449219 78.222656 29.238281 78.433594 29.238281 78.695312 C 29.238281 78.953125 29.449219 79.164062 29.710938 79.164062 L 58.914062 79.164062 C 59.171875 79.164062 59.382812 78.953125 59.382812 78.695312 C 59.382812 78.433594 59.171875 78.222656 58.914062 78.222656 Z M 29.710938 78.222656 "/>
</g>
</svg>
